<?xml version="1.0" encoding="UTF-8"?>
<svg version="1.1" xmlns="http://www.w3.org/2000/svg" width="414" height="410">
<path d="M0 0 C8.03611896 7.01992368 15.94810333 14.04426457 22.6875 22.34765625 C23.57523012 23.39998489 24.46328115 24.45204286 25.3515625 25.50390625 C52.7271583 58.33929232 71.49209247 101.8316852 71.92578125 145 C71.9355751 145.80902771 71.94536896 146.61805542 71.95545959 147.45159912 C72.48451244 202.53498814 56.60117847 251.76704387 19.6875 293.34765625 C18.81996094 294.33765625 17.95242188 295.32765625 17.05859375 296.34765625 C12.22833985 301.77523926 7.30985606 306.752641 1.6875 311.34765625 C1.19217773 311.76595703 0.69685547 312.18425781 0.18652344 312.61523438 C-44.93996493 350.71969137 -100.96453755 365.44393213 -159.2578125 361.05029297 C-208.16783099 356.05851498 -259.74884385 330.74590552 -291.4609375 292.62890625 C-292.37746094 291.4996875 -292.37746094 291.4996875 -293.3125 290.34765625 C-294.20023012 289.29532761 -295.08828115 288.24326964 -295.9765625 287.19140625 C-323.3521583 254.35602018 -342.11709247 210.8636273 -342.55078125 167.6953125 C-342.5605751 166.88628479 -342.57036896 166.07725708 -342.58045959 165.24371338 C-343.10951244 110.16032436 -327.22617847 60.92826863 -290.3125 19.34765625 C-289.44496094 18.35765625 -288.57742188 17.36765625 -287.68359375 16.34765625 C-282.85333985 10.92007324 -277.93485606 5.9426715 -272.3125 1.34765625 C-271.81717773 0.92935547 -271.32185547 0.51105469 -270.81152344 0.08007812 C-200.62824234 -59.18214044 -94.74249507 -66.47485407 0 0 Z " fill="#1D4ED8" transform="translate(342.3125,48.65234375)"/>
<path d="M0 0 C1.87558594 0.40025391 1.87558594 0.40025391 3.7890625 0.80859375 C42.70364344 10.1830913 75.83127612 35.1633896 96.82714844 69.03808594 C110.13210613 91.29425579 117.43943669 116.68639368 117.3125 142.625 C117.30686035 143.84703125 117.3012207 145.0690625 117.29541016 146.328125 C117.16071168 156.46385226 116.31608889 166.12996376 114 176 C113.72591309 177.17272461 113.72591309 177.17272461 113.44628906 178.36914062 C104.32990114 215.58316423 80.84635089 248.37956643 48.15942383 268.43164062 C40.97967303 272.7094503 33.59667686 276.52063694 26 280 C24.45505859 280.70769531 24.45505859 280.70769531 22.87890625 281.4296875 C-11.47502238 295.81455749 -53.95634491 294.68414848 -88.27734375 280.95703125 C-103.10804998 274.69295554 -116.81908419 266.55956524 -129 256 C-130.22589844 254.95585938 -130.22589844 254.95585938 -131.4765625 253.890625 C-150.5956628 237.1984074 -169.85463097 212.56923141 -174.5625 186.9375 C-173.69194873 182.3912878 -171.52623175 179.9264428 -168 177 C-156.62093245 169.91085748 -144.08701431 166.84512011 -130.75390625 166.90234375 C-130.09792953 166.9037587 -129.44195282 166.90517365 -128.76609802 166.90663147 C-126.69818298 166.91216969 -124.63038158 166.92470998 -122.5625 166.9375 C-121.14909012 166.94252301 -119.73567852 166.9470845 -118.32226562 166.95117188 C-114.88147432 166.96211874 -111.44074828 166.97933962 -108 167 C-107.99453156 167.91962021 -107.99453156 167.91962021 -107.98895264 168.8578186 C-107.94708047 175.24983366 -107.87770155 181.64113384 -107.79248047 188.03271484 C-107.76428805 190.41675663 -107.74306497 192.80089158 -107.72900391 195.18505859 C-107.70755131 198.61604452 -107.66088636 202.04591224 -107.609375 205.4765625 C-107.60814636 206.53928375 -107.60691772 207.602005 -107.60565186 208.69692993 C-107.48626225 214.75512915 -107.05735429 218.39075417 -103 223 C-99.95334066 225.16733896 -97.43189777 225.22189205 -93.75 225.125 C-92.85796875 225.10695313 -91.9659375 225.08890625 -91.046875 225.0703125 C-90.37140625 225.04710937 -89.6959375 225.02390625 -89 225 C-88.97421875 225.85722656 -88.9484375 226.71445312 -88.921875 227.59765625 C-88.58054225 234.47861409 -88.30478601 239.4994401 -84 245 C-80.70214337 247.83982099 -77.58701255 248.65532106 -73.21264648 248.47680664 C-64.93278011 246.69256533 -56.93791383 239.29531538 -50.125 234.5 C-49.1246875 233.80003906 -48.124375 233.10007812 -47.09375 232.37890625 C-44.06040989 230.25556817 -41.03007605 228.12799234 -38 226 C-35.47367691 224.23035791 -32.9465885 222.46181328 -30.41943359 220.69335938 C-28.79966124 219.55968217 -27.18019754 218.42556384 -25.56103516 217.29101562 C-18.24175728 212.16332046 -10.90459511 207.06151617 -3.56640625 201.9609375 C3.44428866 197.08638721 10.44249662 192.19431952 17.43481445 187.29345703 C22.85622564 183.49550962 28.28700023 179.71129169 33.72338867 175.93481445 C36.64005371 173.90797128 39.55457194 171.87807301 42.46875 169.84765625 C46.0027379 167.38578394 49.54447879 164.93586947 53.09375 162.49609375 C54.62514571 161.43510612 56.15640455 160.37392089 57.6875 159.3125 C58.37610107 158.84376465 59.06470215 158.3750293 59.77416992 157.89208984 C66.30635085 153.34908241 66.30635085 153.34908241 69.56640625 146.31640625 C69.56511719 145.40761719 69.56382812 144.49882812 69.5625 143.5625 C69.58441406 142.65628906 69.60632813 141.75007812 69.62890625 140.81640625 C68.00302418 133.53528218 61.27948065 129.82787574 55.4375 126 C53.72582241 124.85396918 52.01490908 123.70679623 50.3046875 122.55859375 C49.42651367 121.97190918 48.54833984 121.38522461 47.64355469 120.78076172 C43.41118378 117.92973536 39.23676851 114.99766119 35.0625 112.0625 C33.38281488 110.88411119 31.70312737 109.70572579 30.0234375 108.52734375 C29.19166992 107.9432373 28.35990234 107.35913086 27.50292969 106.75732422 C12.36496533 96.1288549 -2.81178702 85.5564899 -18 75 C-21.89609323 72.29204029 -25.79195423 69.58374721 -29.6875 66.875 C-30.63359131 66.21725586 -31.57968262 65.55951172 -32.55444336 64.88183594 C-37.23335293 61.62715217 -41.90792186 58.36649589 -46.57421875 55.09375 C-47.46729736 54.46742676 -48.36037598 53.84110352 -49.28051758 53.19580078 C-50.94381507 52.02850308 -52.60647156 50.86029115 -54.26831055 49.69091797 C-56.50689105 48.11948943 -58.75259385 46.55877218 -61 45 C-61.79937988 44.43651855 -62.59875977 43.87303711 -63.42236328 43.29248047 C-64.2111084 42.74736816 -64.99985352 42.20225586 -65.8125 41.640625 C-66.51761719 41.14852539 -67.22273438 40.65642578 -67.94921875 40.14941406 C-71.58734987 38.11032819 -73.88364555 38.33607186 -78 39 C-81.79992753 40.37071534 -84.42128523 42.22838031 -86.875 45.5 C-88.51197918 50.59282411 -88.7502731 55.67823357 -89 61 C-89.65226562 61.02578125 -90.30453125 61.0515625 -90.9765625 61.078125 C-96.70591987 61.4499417 -100.52412623 62.08361045 -105 66 C-106.93536856 69.09253547 -107.26511301 71.51760948 -107.31884766 75.13574219 C-107.33871735 76.15649841 -107.35858704 77.17725464 -107.37905884 78.22894287 C-107.39061005 79.32386047 -107.40216125 80.41877808 -107.4140625 81.546875 C-107.43342865 82.6732135 -107.4527948 83.799552 -107.4727478 84.96002197 C-107.53251521 88.55660434 -107.57891819 92.15321876 -107.625 95.75 C-107.66318234 98.18881602 -107.70223422 100.6276186 -107.7421875 103.06640625 C-107.83821449 109.04415144 -107.92327048 115.02197766 -108 121 C-111.18879101 121.02199069 -114.37756217 121.03517946 -117.56640625 121.046875 C-118.91007263 121.05630127 -118.91007263 121.05630127 -120.28088379 121.06591797 C-136.06865845 121.10928105 -152.6994428 118.50074923 -164.66015625 107.46875 C-169.156062 101.95844768 -169.11166501 94.59483324 -168.7265625 87.79296875 C-166.27897365 66.04978246 -142.76479018 43.15785222 -127 30 C-107.63506427 14.65364354 -85.24626952 3.89043653 -61 -1 C-59.97132813 -1.22429688 -58.94265625 -1.44859375 -57.8828125 -1.6796875 C-39.0842591 -5.10186804 -18.6030416 -4.09980701 0 0 Z " fill="#FDFDFE" transform="translate(239,61)"/>
<path d="M0 0 C2.28904733 1.45652323 4.46552619 3.00957605 6.64355469 4.62744141 C7.46500977 5.21356201 8.28646484 5.79968262 9.1328125 6.40356445 C10.86425088 7.63971946 12.59042241 8.88328144 14.31152344 10.13378906 C17.5797757 12.49906921 20.88641365 14.80624562 24.19726562 17.11132812 C26.68878084 18.84643722 29.17447974 20.58962065 31.65917969 22.33447266 C37.22628296 26.23967531 42.80926423 30.12187229 48.39355469 34.00244141 C56.38512139 39.55701936 64.36491756 45.12797251 72.33496094 50.71337891 C78.67833575 55.15675714 85.03416593 59.5820199 91.39355469 64.00244141 C111.26165356 77.81734388 111.26165356 77.81734388 120.79785156 84.52929688 C122.11513441 85.45526201 123.43392741 86.3790863 124.75488281 87.29980469 C126.30592287 88.38130915 127.85007976 89.47266748 129.39355469 90.56494141 C130.58464844 91.4021875 130.58464844 91.4021875 131.79980469 92.25634766 C135.0774479 94.98975534 137.53196199 97.41049434 138.49511719 101.65087891 C138.50285156 102.55064453 138.51058594 103.45041016 138.51855469 104.37744141 C138.55207031 105.27205078 138.58558594 106.16666016 138.62011719 107.08837891 C136.86760949 114.11725386 130.5641954 118.30860277 124.76855469 122.06494141 C123.33941297 123.01953928 121.91106397 123.97532471 120.48339844 124.93212891 C119.73429199 125.43067383 118.98518555 125.92921875 118.21337891 126.44287109 C114.21159802 129.13318643 110.27457967 131.9152588 106.33105469 134.68994141 C99.03049198 139.8113689 91.71655907 144.9131586 84.39355469 150.00244141 C77.21803064 154.98987577 70.04978194 159.98735735 62.89355469 165.00244141 C54.77107428 170.69467568 46.6325686 176.36355292 38.48632812 182.02172852 C33.7747177 185.29589172 29.06906935 188.57790554 24.37792969 191.88134766 C-3.18634798 211.28678151 -3.18634798 211.28678151 -11.10644531 210.00244141 C-15.45863497 207.88972798 -18.23051963 205.478925 -20.10644531 201.00244141 C-21.49712894 195.57912479 -22.24581171 190.32726317 -20.10644531 185.00244141 C-15.11694998 178.91845527 -7.47217821 175.24199877 -0.79394531 171.31494141 C1.19874779 170.08502902 3.1874744 168.84866903 5.17236328 167.60620117 C9.30853804 165.02078139 13.45850551 162.45985559 17.61767578 159.91162109 C26.68659963 154.31183114 35.48153602 148.31002941 44.28451538 142.30429077 C47.77990031 139.92077761 51.28354247 137.54961995 54.78871155 135.18052673 C56.42805918 134.07210607 58.06638099 132.96216649 59.70359802 131.8506012 C63.77632637 129.08899941 67.86575016 126.35860651 71.99023438 123.67480469 C72.81280731 123.13662613 73.63538025 122.59844757 74.48287964 122.04396057 C76.03535368 121.03032833 77.59215493 120.02327918 79.15408325 119.02427673 C83.77059102 116.00294556 87.36799038 113.05357002 89.89355469 108.00244141 C90.32264308 103.53992215 90.22756419 100.21949471 87.43139648 96.56054688 C79.13913045 88.15901618 67.53931499 82.08802231 57.71154785 75.65893555 C38.91694655 63.36041931 20.24752773 50.88497631 1.65527344 38.28295898 C0.35671417 37.40369499 0.35671417 37.40369499 -0.96807861 36.50666809 C-2.56890658 35.42242331 -4.16888032 34.33691559 -5.76776123 33.24980164 C-6.8475827 32.51827629 -6.8475827 32.51827629 -7.94921875 31.77197266 C-8.63518127 31.30642471 -9.3211438 30.84087677 -10.02789307 30.36122131 C-12.80740453 28.54421414 -15.67626992 26.88859064 -18.57019043 25.26072693 C-20.10644531 24.00244141 -20.10644531 24.00244141 -21.02832031 20.22509766 C-21.0125048 18.83728603 -20.95414158 17.44940039 -20.85644531 16.06494141 C-20.85386719 15.37464844 -20.85128906 14.68435547 -20.84863281 13.97314453 C-20.67631765 8.92335286 -19.26103444 5.88189017 -16.10644531 2.00244141 C-11.16526625 -1.36654432 -5.53510781 -2.62128541 0 0 Z " fill="#0D3BBC" transform="translate(171.1064453125,99.99755859375)"/>
</svg>
