<svg width="417" height="413" viewBox="0 0 417 413" fill="none" xmlns="http://www.w3.org/2000/svg">
<ellipse cx="208.5" cy="197.5" rx="176" ry="178" transform="rotate(90 208.5 197.5)" fill="white"/>
<ellipse cx="208.5" cy="206.5" rx="176" ry="178" transform="rotate(90 208.5 206.5)" stroke="#1D4ED8" stroke-width="61"/>
<path d="M319.433 200.815C320.76 204.144 320.76 207.856 319.433 211.185L281.531 306.257C279.908 310.328 276.472 313.404 272.247 314.569L191.045 336.958C186.278 338.272 181.172 336.974 177.611 333.544L110.978 269.355C108.238 266.716 106.691 263.076 106.691 259.272L106.691 152.728C106.691 148.924 108.238 145.284 110.978 142.645L177.611 78.4561C181.172 75.0258 186.278 73.7282 191.045 75.0424L272.247 97.4308C276.472 98.5956 279.908 101.672 281.531 105.743L319.433 200.815Z" fill="#00258E"/>
<path d="M87.7337 79.5C40.036 122.184 -8.38753 207.34 179.5 206.494" stroke="#1D4ED8" stroke-width="53"/>
<path d="M84.8515 329.5C40.3336 288.16 -4.86169 205.686 170.5 206.506" stroke="#1D4ED8" stroke-width="53"/>
<path d="M285.986 194.345C294.311 199.885 294.311 212.115 285.986 217.655L182.756 286.352C173.452 292.544 161 285.873 161 274.697L161 137.303C161 126.127 173.452 119.456 182.756 125.648L285.986 194.345Z" fill="#1D4ED8"/>
</svg>
