<svg width="417" height="413" viewBox="0 0 417 413" fill="none" xmlns="http://www.w3.org/2000/svg">
<ellipse cx="208.5" cy="197.5" rx="176" ry="178" transform="rotate(90 208.5 197.5)" fill="white"/>
<ellipse cx="208.5" cy="206.5" rx="176" ry="178" transform="rotate(90 208.5 206.5)" stroke="#1D4ED8" stroke-width="61"/>
<path d="M319.943 201.459C320.952 204.402 320.952 207.598 319.943 210.541L290.26 297.103C289.07 300.575 286.564 303.44 283.282 305.082L214.765 339.365C210.821 341.339 206.179 341.339 202.235 339.366L133.718 305.082C130.436 303.44 127.93 300.575 126.74 297.103L97.0571 210.541C96.0479 207.598 96.0479 204.402 97.0571 201.459L126.74 114.897C127.93 111.425 130.436 108.56 133.718 106.918L202.235 72.6345C206.179 70.6614 210.821 70.6614 214.765 72.6345L283.282 106.918C286.564 108.56 289.07 111.425 290.26 114.897L319.943 201.459Z" fill="#00258E"/>
<path d="M87.7337 79.5C40.036 122.184 -8.38753 207.34 179.5 206.494" stroke="#1D4ED8" stroke-width="53"/>
<path d="M84.8515 329.5C40.3336 288.16 -4.86169 205.686 170.5 206.506" stroke="#1D4ED8" stroke-width="53"/>
<path d="M285.986 194.345C294.311 199.885 294.311 212.115 285.986 217.655L182.756 286.352C173.452 292.544 161 285.873 161 274.697L161 137.303C161 126.127 173.452 119.456 182.756 125.648L285.986 194.345Z" fill="#1D4ED8"/>
</svg>
