<svg width="736" height="413" viewBox="0 0 736 413" fill="none" xmlns="http://www.w3.org/2000/svg">
<ellipse cx="208.5" cy="197.5" rx="176" ry="178" transform="rotate(90 208.5 197.5)" fill="white"/>
<ellipse cx="208.5" cy="206.5" rx="176" ry="178" transform="rotate(90 208.5 206.5)" stroke="#1D4ED8" stroke-width="61"/>
<path d="M319.433 200.815C320.76 204.144 320.76 207.856 319.433 211.185L281.531 306.257C279.908 310.328 276.472 313.404 272.247 314.569L191.045 336.958C186.278 338.272 181.172 336.974 177.611 333.544L110.978 269.355C108.238 266.716 106.691 263.076 106.691 259.272L106.691 152.728C106.691 148.924 108.238 145.284 110.978 142.645L177.611 78.4561C181.172 75.0258 186.278 73.7282 191.045 75.0424L272.247 97.4308C276.472 98.5956 279.908 101.672 281.531 105.743L319.433 200.815Z" fill="#00258E"/>
<path d="M87.7337 79.5C40.036 122.184 -8.38753 207.34 179.5 206.494" stroke="#1D4ED8" stroke-width="53"/>
<path d="M84.8515 329.5C40.3336 288.16 -4.86169 205.686 170.5 206.506" stroke="#1D4ED8" stroke-width="53"/>
<path d="M285.986 194.345C294.311 199.885 294.311 212.115 285.986 217.655L182.756 286.352C173.452 292.544 161 285.873 161 274.697L161 137.303C161 126.127 173.452 119.456 182.756 125.648L285.986 194.345Z" fill="#1D4ED8"/>
<path d="M503.028 185.54H526.068V258.5H503.028V185.54ZM605.457 258.5H581.265L576.913 240.068C576.742 239.385 576.444 238.233 576.017 236.612C575.676 234.905 575.249 233.668 574.737 232.9C574.225 232.047 573.5 231.492 572.561 231.236C570.172 231.321 566.673 231.364 562.065 231.364V258.5H539.025V186.18C549.35 185.412 558.993 185.028 567.953 185.028C576.06 185.028 582.63 185.711 587.665 187.076C592.7 188.356 596.454 190.617 598.929 193.86C601.489 197.017 602.769 201.369 602.769 206.916C602.769 212.121 601.574 216.217 599.185 219.204C596.796 222.105 592.956 223.855 587.665 224.452V225.22C590.652 225.476 593.126 226.457 595.089 228.164C597.137 229.785 598.502 231.876 599.185 234.436L605.457 258.5ZM562.065 216.9C562.833 216.985 564.326 217.028 566.545 217.028C573.116 217.028 576.956 216.473 578.065 215.364C579.089 214.34 579.601 211.951 579.601 208.196C579.601 204.697 578.662 202.308 576.785 201.028C574.993 199.748 572.006 199.108 567.825 199.108C566.886 199.108 564.966 199.193 562.065 199.364V216.9ZM613.403 185.54H636.443V258.5H613.403V185.54ZM670.392 205.252C670.392 207.044 671.288 208.452 673.08 209.476C674.957 210.5 677.859 211.609 681.784 212.804C686.477 214.34 690.317 215.833 693.304 217.284C696.376 218.735 699.021 220.996 701.24 224.068C703.544 227.14 704.696 231.151 704.696 236.1C704.696 251.972 694.371 259.908 673.72 259.908C670.307 259.908 666.125 259.609 661.176 259.012C656.312 258.415 651.875 257.647 647.864 256.708C648.035 254.916 648.376 252.313 648.888 248.9C649.485 245.401 650.04 242.799 650.552 241.092C653.539 241.519 658.019 242.031 663.992 242.628C670.051 243.225 674.616 243.524 677.688 243.524C679.48 243.524 680.547 243.396 680.888 243.14C681.4 242.799 681.784 242.244 682.04 241.476C682.381 240.623 682.552 239.897 682.552 239.3C682.552 237.593 681.741 236.313 680.12 235.46C678.499 234.521 675.725 233.412 671.8 232.132C667.107 230.681 663.224 229.188 660.152 227.652C657.08 226.116 654.392 223.727 652.088 220.484C649.784 217.241 648.632 212.975 648.632 207.684C648.632 203.929 649.485 200.26 651.192 196.676C652.899 193.007 654.648 190.532 656.44 189.252C657.805 188.313 660.621 187.417 664.888 186.564C669.155 185.711 673.165 185.284 676.92 185.284C686.477 185.284 694.285 186.18 700.344 187.972C700.259 189.679 699.96 192.025 699.448 195.012C699.021 197.999 698.552 200.729 698.04 203.204L695.096 203.076C684.003 202.308 676.92 201.924 673.848 201.924C672.568 201.924 671.843 201.967 671.672 202.052C671.331 202.223 671.032 202.607 670.776 203.204C670.52 203.801 670.392 204.484 670.392 205.252Z" fill="black"/>
</svg>
