<?xml version="1.0" encoding="UTF-8"?>
<svg version="1.1" xmlns="http://www.w3.org/2000/svg" width="385" height="389" viewBox="0 0 385 389">
<path d="M0 0 C0.87640137 0.20367188 1.75280273 0.40734375 2.65576172 0.6171875 C45.87521763 10.92685341 84.61602409 37.45615517 111 73 C111.40105957 73.54027832 111.80211914 74.08055664 112.21533203 74.63720703 C134.16697431 104.54781655 148.84913405 142.18475413 149.23828125 179.53125 C149.2480751 180.31666672 149.25786896 181.10208344 149.26795959 181.91130066 C149.82602551 238.30999095 132.15702261 288.62230924 92.48974609 329.48583984 C64.9216522 357.50572157 28.62601036 376.11472535 -10 383 C-11.4842749 383.26707764 -11.4842749 383.26707764 -12.99853516 383.53955078 C-22.97069527 385.15700942 -32.79109559 385.39915628 -42.875 385.375 C-43.73172302 385.37445618 -44.58844604 385.37391235 -45.47113037 385.37335205 C-59.64182532 385.33212077 -73.18068689 384.3370281 -87 381 C-87.87640137 380.79632813 -88.75280273 380.59265625 -89.65576172 380.3828125 C-132.87521763 370.07314659 -171.61602409 343.54384483 -198 308 C-198.60158936 307.18958252 -198.60158936 307.18958252 -199.21533203 306.36279297 C-221.16697431 276.45218345 -235.84913405 238.81524587 -236.23828125 201.46875 C-236.25297203 200.29062492 -236.25297203 200.29062492 -236.26795959 199.08869934 C-236.77933985 147.40810795 -222.52135335 96.49397472 -185.6875 58.5 C-184.82705078 57.68015625 -184.82705078 57.68015625 -183.94921875 56.84375 C-182.71267071 54.91547245 -182.71267071 54.91547245 -183.57421875 52.203125 C-185.14272939 48.67934766 -187.02742927 45.47418116 -189.125 42.25 C-193 36.25648789 -193 36.25648789 -193 34 C-191.998479 33.99701904 -190.99695801 33.99403809 -189.96508789 33.9909668 C-164.02833499 34.24476899 -164.02833499 34.24476899 -141.80126953 22.43847656 C-138.69613685 19.9587474 -135.26475471 18.14373374 -131.75 16.3125 C-131.05608154 15.94987061 -130.36216309 15.58724121 -129.6472168 15.21362305 C-114.90014437 7.73658975 -99.12476079 2.52932198 -83 -1 C-82.29311035 -1.16371094 -81.5862207 -1.32742188 -80.85791016 -1.49609375 C-55.36469831 -7.18082747 -25.24831604 -6.0968544 0 0 Z " fill="#1D4ED8" transform="translate(236,4)"/>
<path d="M0 0 C0.75571289 0.00942627 1.51142578 0.01885254 2.29003906 0.02856445 C21.8788825 0.54265894 39.98825165 7.74375165 55.375 19.6875 C55.92470459 20.11305176 56.47440918 20.53860352 57.04077148 20.97705078 C60.45681186 23.71008471 63.40550089 26.62140232 66.375 29.8359375 C71.57903129 35.10533503 77.40886891 37.74800353 84.125 40.6875 C100.19067839 48.07457048 115.00084695 56.58604534 128.25 68.375 C129.09691406 69.11363281 129.94382812 69.85226563 130.81640625 70.61328125 C133.32783645 72.83330887 135.79531361 75.09250205 138.25 77.375 C138.98863281 78.04789062 139.72726562 78.72078125 140.48828125 79.4140625 C159.19050344 97.15293755 171.50412266 121.61959673 172.62109375 147.49609375 C173.05565499 169.82868675 169.85287029 193.73459814 154.5625 211.1875 C148.04963589 217.91468139 141.68282124 222.3424476 132.171875 222.94140625 C122.74267735 222.82534136 114.50493053 218.35635899 106.0625 214.5625 C104.27513455 213.7789067 102.48687706 212.99734515 100.69775391 212.21777344 C96.32462453 210.30655945 91.96243681 208.37193119 87.60467529 206.42596436 C82.11817671 203.97717047 76.62035166 201.55384175 71.125 199.125 C70.13242188 198.68494629 69.13984375 198.24489258 68.1171875 197.79150391 C50.45878332 190.00658331 32.97026145 184.22706553 13.5625 184.0625 C12.44166016 184.03349609 11.32082031 184.00449219 10.16601562 183.97460938 C-2.92178151 183.87586221 -12.12332102 188.00891369 -21.46484375 197.03125 C-28.82786596 204.9750704 -31.73652948 213.83022098 -32.28515625 224.421875 C-32.32813339 225.19307678 -32.37111053 225.96427856 -32.41539001 226.7588501 C-32.55138052 229.21405024 -32.68201111 231.66950192 -32.8125 234.125 C-32.90394317 235.79298818 -32.99573603 237.46095723 -33.08789062 239.12890625 C-33.31264714 243.21072687 -33.53259812 247.29278133 -33.75 251.375 C-36.89427762 250.21777755 -39.43184264 249.08105336 -41.984375 246.90625 C-42.55389893 246.42293213 -43.12342285 245.93961426 -43.71020508 245.44165039 C-44.3008374 244.92465576 -44.89146973 244.40766113 -45.5 243.875 C-46.11834717 243.33673584 -46.73669434 242.79847168 -47.3737793 242.24389648 C-66.23763302 225.57906287 -84.57977804 198.99121421 -87.75 173.375 C-88.01317939 168.40966115 -88.07994606 163.46246125 -88.06567383 158.4909668 C-88.06252959 156.20897878 -88.08598816 153.92831162 -88.11132812 151.64648438 C-88.15372122 141.84758634 -87.11148262 132.89932907 -84.75 123.375 C-84.56187744 122.61582275 -84.37375488 121.85664551 -84.17993164 121.07446289 C-80.0562906 105.84174495 -72.31290655 92.02364084 -61.75 80.375 C-61.03070313 79.54871094 -60.31140625 78.72242188 -59.5703125 77.87109375 C-42.14650165 58.0600348 -23.39023218 42.7060434 2.25 35.375 C1.80799107 29.61986335 -0.59045635 25.93248676 -3.6875 21.25 C-4.59393501 19.85252594 -5.49893112 18.45411731 -6.40234375 17.0546875 C-6.80445068 16.44351074 -7.20655762 15.83233398 -7.62084961 15.20263672 C-10.16277228 11.08829442 -11.27574026 8.31695848 -10.75 3.375 C-8.23871974 -0.65252495 -4.26803233 -0.08178662 0 0 Z " fill="#000000" transform="translate(156.75,52.625)"/>
<path d="M0 0 C1.1127832 0.24145752 1.1127832 0.24145752 2.24804688 0.48779297 C30.32907929 6.87040317 55.21718184 21.26265897 76 41 C76.474375 41.44714355 76.94875 41.89428711 77.4375 42.35498047 C102.17175494 65.80904448 117.99359317 96.49605439 124 130 C124.17063965 130.92844727 124.3412793 131.85689453 124.51708984 132.81347656 C125.92420651 141.04604712 126.31523575 149.03201103 126.25 157.375 C126.24178223 158.65721436 126.23356445 159.93942871 126.22509766 161.26049805 C126.1213498 170.02719187 125.81989212 178.39925985 124 187 C123.81695312 187.86866699 123.63390625 188.73733398 123.4453125 189.63232422 C117.87663589 215.38315671 107.83611451 239.50148396 91 260 C90.54367187 260.56170898 90.08734375 261.12341797 89.6171875 261.70214844 C71.46839322 283.93927405 45.51768571 304.58167646 16 308 C8.95084553 308.68726934 3.08605479 308.63390766 -3.02734375 304.76171875 C-6.69717952 301.48430106 -8.83660048 297.36226461 -11 293 C-11.38285156 292.34128906 -11.76570312 291.68257813 -12.16015625 291.00390625 C-13 289 -13 289 -13 284 C-8.38 283.67 -3.76 283.34 1 283 C-4.97996622 271.44297308 -10.99929401 259.91337082 -17.25 248.5 C-17.74564453 247.59459473 -18.24128906 246.68918945 -18.75195312 245.75634766 C-19.7133764 244.00088604 -20.6749592 242.24551178 -21.63671875 240.49023438 C-23.68484874 236.74902272 -25.72536184 233.00397815 -27.75 229.25 C-28.08547852 228.63576172 -28.42095703 228.02152344 -28.76660156 227.38867188 C-31 223.23026227 -31 223.23026227 -31 221 C-31.66 221 -32.32 221 -33 221 C-33.20882812 221.76183594 -33.41765625 222.52367187 -33.6328125 223.30859375 C-35.55668285 228.5030437 -38.2104192 233.21454511 -40.875 238.0625 C-41.45000244 239.11655029 -42.02500488 240.17060059 -42.61743164 241.2565918 C-47.43149755 250.04649274 -52.3875424 258.75195976 -57.38671875 267.4375 C-60.3434162 272.58068953 -63.19193659 277.77388198 -66 283 C-59.73 283.33 -53.46 283.66 -47 284 C-46.443125 286.2275 -45.88625 288.455 -45.3125 290.75 C-42.58656366 301.18728714 -38.50780356 310.71876506 -33 320 C-72.01650222 321.86285687 -110.22267115 305.77810856 -139 280 C-139.89460938 279.23816406 -140.78921875 278.47632813 -141.7109375 277.69140625 C-147.91189469 272.3395032 -152.99675846 266.47062334 -158 260 C-158.72960937 259.09765625 -159.45921875 258.1953125 -160.2109375 257.265625 C-175.49492241 237.85228277 -184.56974333 214.92575298 -190 191 C-190.16371094 190.33564941 -190.32742187 189.67129883 -190.49609375 188.98681641 C-199.82604574 150.7706391 -190.02309523 107.2711148 -170 74 C-165.14308474 66.32984748 -159.68418395 59.07324497 -154 52 C-151.07421391 54.82344377 -149.07506972 57.51011002 -147 61 C-146.01 61.495 -146.01 61.495 -145 62 C-144.75507813 61.16597656 -144.51015625 60.33195312 -144.2578125 59.47265625 C-142.82616638 55.52006806 -140.9687795 52.06966575 -138.875 48.4375 C-138.47611572 47.74221191 -138.07723145 47.04692383 -137.66625977 46.33056641 C-136.84552236 44.90626433 -136.02171444 43.48372713 -135.19482422 42.06298828 C-134.08306471 40.14341986 -132.99511913 38.21213339 -131.91015625 36.27734375 C-128.0302111 29.58539875 -124.6985105 24.88911955 -118 21 C-117.45875488 20.67080566 -116.91750977 20.34161133 -116.35986328 20.00244141 C-81.35488132 -1.25158698 -40.25686005 -8.77460131 0 0 Z M-78.99609375 18.28125 C-80.50847181 20.87053539 -80.38543843 23.22206472 -79.984375 26.125 C-78.14124238 31.5081175 -74.63758751 35.95336338 -71.34765625 40.546875 C-68.73090391 44.26280516 -67 47.36635762 -67 52 C-67.8971875 52.25652344 -68.794375 52.51304688 -69.71875 52.77734375 C-84.11686614 57.19494757 -96.67540219 63.99176569 -108 74 C-108.80566406 74.69738281 -109.61132812 75.39476562 -110.44140625 76.11328125 C-113.00120427 78.36862755 -115.50721271 80.67086134 -118 83 C-118.87527344 83.80953125 -119.75054687 84.6190625 -120.65234375 85.453125 C-134.99811574 99.20201408 -145.9497652 115.36422102 -152.375 134.1875 C-152.61395996 134.8872998 -152.85291992 135.58709961 -153.09912109 136.30810547 C-156.66984895 147.48052769 -157.34916616 158.56670419 -157.31567383 170.19970703 C-157.31250428 172.49689863 -157.33609945 174.79280925 -157.36132812 177.08984375 C-157.41327746 188.86965226 -155.51768036 199.2709938 -150.9375 210.1875 C-150.64149902 210.89600098 -150.34549805 211.60450195 -150.04052734 212.33447266 C-144.5169696 225.10646888 -137.23701988 236.59602566 -128 247 C-126.97519531 248.23943359 -126.97519531 248.23943359 -125.9296875 249.50390625 C-119.82578082 256.70020952 -112.7201018 262.60720644 -105 268 C-104.34 268 -103.68 268 -103 268 C-102.96036133 266.99211426 -102.92072266 265.98422852 -102.87988281 264.94580078 C-102.72628794 261.16151733 -102.54910554 257.37862623 -102.36523438 253.59570312 C-102.28925965 251.96675355 -102.21945466 250.33750284 -102.15625 248.70800781 C-101.79538367 239.51719338 -101.4655464 231.2747733 -97 223 C-96.53078125 222.10925781 -96.0615625 221.21851563 -95.578125 220.30078125 C-90.27601863 212.36321612 -83.91424574 206.57586664 -75 203 C-74.18789062 202.64164063 -73.37578125 202.28328125 -72.5390625 201.9140625 C-67.20976051 200.53762027 -61.98233734 200.66025954 -56.5 200.6875 C-55.32888672 200.69313965 -54.15777344 200.6987793 -52.95117188 200.70458984 C-44.52988015 200.82278752 -37.07781433 201.49473447 -29 204 C-28.35289062 204.18804199 -27.70578125 204.37608398 -27.0390625 204.56982422 C-17.98470357 207.21418509 -9.40163671 210.61028227 -0.8515625 214.58203125 C1.09351411 215.47477563 3.03917132 216.36625591 4.98535156 217.2565918 C6.47500427 217.93810806 6.47500427 217.93810806 7.99475098 218.63339233 C15.69920495 222.13691759 23.45107296 225.52955804 31.2265625 228.87207031 C33.18047861 229.71670453 35.13062864 230.57009795 37.07714844 231.43164062 C54.5040487 239.26878871 54.5040487 239.26878871 73.125 237.625 C85.32302927 231.95604409 90.97018988 220.74440715 96 209 C96.42152344 208.01644531 96.84304688 207.03289062 97.27734375 206.01953125 C98.31425558 203.370515 99.18808188 200.72600529 100 198 C100.29777344 197.05253906 100.59554688 196.10507813 100.90234375 195.12890625 C107.49523768 170.30681251 103.08468663 143.15692664 90.8125 120.9375 C72.60900367 91.247518 44.24226678 70.63661027 12.9375 56.4375 C4.9393914 52.78320304 -0.56503445 49.37818691 -6.421875 42.765625 C-20.83400168 27.30534365 -43.31697008 17.54682276 -64.296875 16.796875 C-65.7811845 16.77593236 -67.26557893 16.76036245 -68.75 16.75 C-69.50410156 16.729375 -70.25820312 16.70875 -71.03515625 16.6875 C-75.2332837 16.63421485 -75.2332837 16.63421485 -78.99609375 18.28125 Z " fill="#FDFDFD" transform="translate(226,36)"/>
<path d="M0 0 C15.65632186 8.00939279 37.16528791 20.76354925 45.17236328 37.11132812 C45.68643972 40.21720663 45.78058674 43.0154707 45.17236328 46.11132812 C42.37910295 49.30362565 39.01847641 49.94609941 34.90283203 50.31445312 C4.81668767 50.86903643 -34.98529929 35.62609741 -56.93701172 15.09179688 C-59.3148133 12.60100059 -60.70548382 10.78316906 -61.32763672 7.36132812 C-60.60026056 2.63338308 -58.44214568 0.15774138 -54.82763672 -2.88867188 C-36.86724617 -13.72059734 -17.85604931 -8.69899513 0 0 Z " fill="#FCFCFC" transform="translate(236.82763671875,183.888671875)"/>
</svg>
